<?xml version="1.0" standalone="no"?>
<!DOCTYPE svg PUBLIC "-//W3C//DTD SVG 20010904//EN"
 "http://www.w3.org/TR/2001/REC-SVG-20010904/DTD/svg10.dtd">
<svg version="1.0" xmlns="http://www.w3.org/2000/svg"
 width="512.000000pt" height="512.000000pt" viewBox="0 0 512.000000 512.000000"
 preserveAspectRatio="xMidYMid meet">
<metadata>
Created by potrace 1.14, written by Peter Selinger 2001-2017
</metadata>
<g transform="translate(0.000000,512.000000) scale(0.100000,-0.100000)"
fill="#000000" stroke="none">
<path d="M3059 3975 c-3 -2 -27 -7 -55 -10 -27 -3 -60 -7 -74 -10 -14 -4 -36
-8 -49 -11 -14 -3 -29 -8 -35 -12 -6 -4 -13 -7 -16 -8 -3 0 -18 -6 -33 -12
-16 -7 -33 -12 -38 -12 -5 0 -9 -4 -9 -10 0 -5 -7 -10 -15 -10 -8 0 -15 -5
-15 -11 0 -5 -4 -8 -9 -5 -5 3 -30 -14 -55 -37 -25 -24 -48 -42 -50 -40 -6 7
-31 -40 -27 -52 1 -5 0 -7 -4 -3 -9 9 -35 -14 -28 -25 3 -4 -5 -17 -18 -28
-12 -10 -19 -19 -14 -19 4 0 2 -6 -4 -13 -6 -8 -8 -17 -4 -20 3 -4 1 -7 -6 -7
-7 0 -9 -4 -6 -10 3 -5 1 -10 -5 -10 -6 0 -8 -5 -5 -10 4 -6 1 -17 -5 -25 -6
-8 -9 -19 -5 -25 3 -5 2 -10 -4 -10 -5 0 -8 -9 -6 -20 2 -11 0 -20 -5 -20 -5
0 -9 -10 -9 -22 0 -13 -1 -33 -1 -45 0 -13 -6 -23 -13 -23 -7 0 -8 -3 -2 -8 6
-4 11 -17 11 -30 1 -12 -1 -21 -3 -18 -3 2 -12 -2 -21 -10 -10 -8 -19 -13 -22
-13 -6 2 -138 -68 -157 -84 -7 -5 -13 -6 -13 -1 0 5 -4 4 -8 -2 -4 -6 -20 -18
-37 -27 -16 -8 -41 -24 -54 -36 -13 -11 -28 -18 -32 -15 -5 3 -9 0 -9 -6 0 -6
-8 -14 -17 -17 -10 -4 -31 -20 -48 -35 -16 -15 -36 -28 -44 -28 -8 0 -11 -3
-8 -7 4 -3 -8 -17 -25 -30 -18 -12 -29 -23 -25 -23 3 0 -11 -16 -31 -36 -20
-20 -37 -40 -37 -45 0 -5 -6 -13 -13 -18 -7 -4 -14 -17 -15 -29 0 -11 -4 -19
-8 -16 -4 2 -10 -4 -14 -15 -3 -11 -13 -22 -21 -25 -8 -3 -12 -10 -9 -16 3 -5
1 -10 -5 -10 -10 0 -21 -8 -55 -37 -7 -7 -21 -13 -30 -13 -9 0 -14 -4 -10 -9
3 -5 -5 -13 -17 -17 -13 -4 -25 -10 -28 -13 -8 -10 -156 -81 -169 -81 -6 0
-11 -4 -11 -10 0 -5 -4 -10 -9 -10 -5 0 -26 -8 -47 -17 -22 -9 -42 -16 -46
-15 -5 1 -8 -3 -8 -10 0 -6 -3 -8 -7 -5 -3 4 -15 -1 -26 -10 -10 -10 -20 -16
-21 -14 -2 6 -94 -38 -101 -49 -4 -6 -11 -8 -16 -5 -5 4 -9 1 -9 -4 0 -6 -6
-11 -13 -11 -7 0 -23 -9 -35 -20 -12 -12 -22 -18 -22 -14 0 4 -32 -25 -70 -64
-39 -40 -75 -72 -80 -72 -6 0 -9 -6 -8 -12 2 -7 -3 -12 -10 -10 -6 1 -12 -2
-12 -7 0 -14 -57 -71 -71 -71 -7 0 -10 -3 -6 -6 8 -8 -34 -54 -45 -48 -4 3 -8
0 -8 -7 0 -16 -102 -109 -112 -103 -5 3 -7 1 -6 -4 4 -12 -68 -83 -76 -75 -3
4 -6 -1 -6 -10 0 -9 -4 -17 -9 -17 -4 0 -20 -10 -34 -22 -14 -13 -40 -34 -57
-48 -18 -14 -40 -33 -51 -42 -10 -10 -19 -15 -19 -10 0 4 -7 -2 -15 -12 -8
-11 -15 -17 -15 -13 0 4 -17 -4 -37 -18 -21 -14 -43 -25 -50 -25 -7 0 -13 -4
-13 -10 0 -5 -6 -7 -14 -4 -7 3 -20 -1 -27 -8 -8 -8 -29 -23 -46 -33 -18 -11
-33 -23 -33 -27 0 -4 -5 -8 -12 -8 -17 0 -94 -86 -90 -100 3 -7 0 -10 -6 -6
-8 5 -24 -24 -37 -66 -1 -5 -3 -9 -4 -10 -8 -10 -8 -58 0 -58 6 0 6 -7 -1 -19
-7 -15 -6 -23 5 -34 8 -8 11 -17 8 -21 -4 -3 -1 -6 6 -6 7 0 9 -5 6 -11 -4 -6
2 -13 14 -16 11 -3 19 -9 16 -13 -4 -6 23 -23 33 -20 1 0 16 -7 32 -15 17 -9
30 -13 30 -9 0 4 6 2 13 -4 7 -6 28 -12 45 -14 18 -1 32 -5 32 -9 0 -4 10 -7
23 -6 12 0 40 -3 62 -7 61 -11 96 -16 146 -20 25 -2 56 -7 69 -11 17 -5 21 -4
15 5 -6 10 -4 11 6 4 20 -13 329 -12 329 1 0 5 5 3 10 -5 9 -13 10 -13 10 0 0
9 3 11 8 5 8 -11 42 -16 42 -6 0 3 66 8 148 9 81 2 163 5 182 6 19 1 41 -3 49
-9 9 -6 13 -6 9 0 -4 7 48 10 148 10 85 0 154 2 154 5 0 3 11 5 25 5 14 0 25
-2 25 -5 0 -3 11 -5 25 -5 14 0 25 4 25 8 0 5 5 5 12 1 13 -9 118 -12 118 -4
0 7 80 3 87 -4 3 -3 13 -1 23 4 10 5 20 6 24 3 7 -8 116 -10 116 -3 0 3 11 5
25 5 14 0 25 -3 25 -6 0 -8 33 -5 48 5 6 4 12 4 12 -1 0 -4 60 -9 133 -10 237
-3 367 -8 367 -15 0 -3 16 -5 35 -3 19 2 37 0 39 -4 13 -21 383 -17 398 4 5 6
8 6 8 -2 0 -9 18 -11 40 -3 5 2 238 0 330 -3 25 -1 48 -6 52 -12 5 -6 8 -7 8
0 0 6 22 9 53 8 28 -2 128 -5 221 -8 93 -3 173 -8 179 -12 5 -3 7 -2 4 4 -7
11 680 12 698 1 6 -4 17 -3 25 2 9 5 20 4 29 -3 11 -9 15 -9 18 0 3 9 10 10
24 3 11 -7 19 -7 19 -1 0 5 8 7 18 5 9 -3 33 2 52 10 19 8 31 15 27 16 -5 0
-1 7 7 16 9 8 14 20 11 25 -4 5 -2 9 3 9 5 0 7 11 5 24 -3 13 0 32 5 43 7 12
7 25 1 36 -6 9 -6 17 -1 17 4 0 8 27 8 60 -1 33 1 60 4 60 9 0 -1 425 -10 450
-2 3 -2 9 -1 14 1 4 -4 14 -10 22 -8 10 -8 14 0 14 7 0 8 8 1 24 -5 13 -6 27
-3 30 4 3 1 6 -6 6 -7 0 -11 6 -8 14 3 7 0 19 -6 26 -9 10 -9 11 0 6 9 -5 11
-2 7 8 -3 9 -10 16 -15 16 -6 0 -5 10 2 21 8 15 8 19 0 15 -7 -4 -11 1 -11 13
0 12 -4 21 -10 21 -5 0 -6 7 -3 17 5 12 3 14 -7 8 -9 -5 -11 -4 -6 4 4 6 2 18
-4 26 -7 8 -9 15 -4 15 5 0 1 5 -9 11 -9 6 -15 14 -12 20 4 5 -1 12 -9 15 -9
3 -13 10 -10 15 3 5 0 9 -7 9 -7 0 -9 3 -6 6 4 4 -3 15 -14 25 -11 9 -21 21
-21 26 -1 17 -25 43 -33 35 -5 -4 -5 -1 -1 6 5 8 -2 22 -17 36 -14 13 -23 27
-19 30 3 4 -4 13 -16 22 -12 8 -20 20 -17 25 4 5 -1 9 -10 9 -9 0 -13 5 -10
10 3 6 1 10 -4 10 -6 0 -11 6 -11 13 0 7 -9 19 -19 27 -11 7 -18 17 -16 21 3
4 -2 9 -10 13 -8 3 -15 12 -15 21 0 8 -4 15 -9 15 -5 0 -22 20 -38 45 -15 24
-34 44 -41 45 -7 0 -10 5 -7 10 3 6 -1 13 -9 16 -9 3 -16 12 -16 20 0 8 -5 14
-10 14 -6 0 -17 15 -25 33 -8 17 -14 28 -15 24 0 -4 -6 -2 -14 5 -8 7 -12 16
-9 21 2 4 -3 10 -11 13 -8 3 -18 14 -21 25 -4 10 -13 19 -21 19 -12 0 -15 5
-14 25 1 10 -28 35 -39 35 -6 0 -10 3 -9 8 3 14 -14 42 -23 36 -5 -3 -9 4 -9
16 0 12 -3 19 -7 17 -5 -2 -16 4 -25 15 -10 10 -16 18 -13 18 6 0 -16 25 -77
89 -21 22 -38 43 -38 47 0 3 -12 17 -27 30 -16 13 -24 24 -20 24 4 0 -10 18
-33 41 -22 22 -40 45 -40 50 0 6 -4 7 -10 4 -5 -3 -10 1 -10 10 0 9 -4 13 -10
10 -5 -3 -10 1 -10 9 0 9 -8 16 -17 16 -9 0 -13 3 -10 6 3 4 -8 20 -26 37 -18
16 -31 34 -30 38 2 4 -6 11 -17 14 -11 4 -20 12 -20 20 0 8 -9 17 -20 20 -11
3 -20 10 -20 14 0 5 -20 29 -45 53 -25 25 -45 43 -45 41 0 -2 -7 2 -15 11 -8
8 -15 20 -15 26 0 6 -4 9 -10 5 -5 -3 -15 6 -22 19 -7 14 -16 25 -20 25 -5 1
-12 1 -18 1 -5 0 -10 6 -10 13 0 6 -18 23 -40 37 -22 13 -40 28 -40 32 0 4 -7
8 -15 8 -7 0 -19 8 -24 18 -6 9 -11 14 -11 10 0 -4 -21 4 -46 18 -26 14 -43
21 -39 14 6 -9 2 -9 -14 0 -25 13 -52 19 -96 22 -16 1 -34 5 -40 8 -5 4 -38 7
-72 6 -33 -1 -59 2 -56 7 5 8 -27 5 -43 -6 -6 -3 -14 -3 -18 0 -12 12 -36 12
-36 0 0 -8 -3 -8 -8 1 -5 7 -11 10 -13 7z m50 -199 c17 -2 34 1 37 5 3 5 10 6
16 3 6 -4 40 -9 77 -11 36 -3 68 -8 71 -11 3 -4 14 -7 25 -7 11 1 23 -4 27
-10 5 -6 8 -5 8 3 0 8 5 10 13 5 6 -4 14 -8 17 -8 20 -3 50 -18 50 -26 0 -5 6
-9 14 -9 14 0 30 -12 108 -82 23 -21 45 -38 50 -38 4 0 8 -7 8 -15 0 -8 4 -15
9 -15 13 0 70 -58 63 -64 -3 -3 -1 -6 4 -6 5 0 20 -10 34 -21 14 -11 18 -17
10 -13 -8 5 15 -22 53 -59 37 -37 67 -72 67 -78 0 -5 5 -7 10 -4 6 3 10 2 10
-4 0 -9 59 -78 123 -143 15 -15 25 -28 22 -28 -3 0 12 -17 32 -38 54 -56 113
-122 107 -122 -3 0 1 -6 8 -14 7 -8 17 -11 22 -8 5 3 6 1 3 -5 -3 -5 16 -34
43 -64 27 -30 50 -58 50 -62 0 -4 14 -21 30 -37 18 -17 28 -35 24 -42 -4 -6
-3 -9 2 -6 5 3 20 -6 34 -20 14 -13 18 -21 10 -17 -8 4 -6 -1 5 -12 30 -30 65
-73 60 -73 -2 0 9 -14 25 -30 17 -17 30 -38 30 -46 0 -8 5 -12 10 -9 6 3 13
-2 17 -12 4 -10 15 -27 25 -37 9 -10 15 -23 12 -28 -3 -4 2 -8 10 -8 9 0 16
-7 16 -15 0 -8 5 -15 10 -15 6 0 10 -6 10 -14 0 -8 7 -17 16 -20 9 -4 14 -9
11 -13 -4 -3 1 -12 11 -19 15 -12 13 -12 -13 -8 -16 3 -46 9 -65 14 -19 5 -44
8 -55 6 -11 -2 -30 1 -42 5 -13 5 -23 5 -23 0 0 -4 -16 -7 -35 -6 -19 1 -35
-2 -35 -5 0 -4 -6 -7 -12 -8 -43 -3 -58 -7 -58 -15 0 -5 -7 -7 -15 -3 -8 3
-15 1 -15 -4 0 -6 -3 -9 -7 -8 -11 2 -65 -23 -85 -40 -10 -9 -18 -12 -18 -8 0
7 -14 -4 -51 -36 -10 -10 -19 -16 -19 -13 0 2 -11 -6 -25 -19 -14 -13 -25 -29
-25 -36 0 -7 -3 -11 -6 -7 -9 8 -33 -16 -26 -27 3 -5 0 -6 -6 -2 -5 3 -12 3
-15 -1 -2 -5 -2 -2 -1 5 2 6 -2 12 -8 12 -6 0 -8 3 -5 7 4 3 -1 15 -10 26 -10
11 -12 17 -5 13 16 -10 15 4 -3 28 -8 11 -15 28 -15 38 0 10 -5 18 -11 18 -5
0 -8 4 -4 9 3 6 -3 14 -12 20 -14 8 -14 10 -3 11 10 0 7 5 -8 16 -12 8 -22 22
-22 30 0 8 -4 12 -10 9 -6 -3 -7 1 -4 9 4 11 0 16 -12 16 -16 0 -17 2 -4 10
10 7 11 10 2 10 -7 0 -28 16 -46 35 -19 19 -38 35 -43 35 -5 0 -16 8 -25 18
-8 9 -31 28 -49 42 -18 14 -41 33 -51 43 -10 9 -22 17 -26 17 -4 0 -14 9 -22
20 -8 11 -20 20 -26 20 -7 0 -15 7 -18 16 -3 8 -11 12 -17 8 -7 -4 -9 -3 -6 3
4 6 -9 21 -28 34 -19 13 -35 27 -35 32 0 4 -7 7 -16 7 -8 0 -12 5 -9 10 3 6 2
10 -3 10 -4 0 -32 21 -60 48 -28 26 -65 59 -82 74 -16 15 -30 30 -30 33 0 9
-40 45 -50 45 -5 0 -10 4 -10 10 0 5 -18 28 -40 50 -22 22 -40 46 -40 52 0 6
-3 9 -6 5 -8 -8 -34 18 -34 34 0 7 -3 10 -6 6 -3 -3 -20 7 -37 23 -68 62 -112
100 -119 100 -7 0 -36 21 -62 46 -6 6 -17 9 -24 6 -6 -2 -12 1 -12 6 0 5 -19
17 -42 27 -24 9 -52 21 -63 26 -11 4 -39 13 -61 19 -23 5 -45 17 -48 26 -4 10
-2 13 6 8 7 -5 9 -2 5 8 -3 9 1 27 8 42 10 19 11 24 2 19 -9 -5 -9 -3 0 9 7 8
10 18 6 21 -3 4 0 7 7 7 7 0 10 3 7 7 -4 3 0 17 8 30 9 13 12 23 8 23 -4 0 2
7 13 15 10 8 16 15 12 15 -4 0 0 9 9 19 9 11 20 18 25 15 5 -3 7 0 6 7 -3 11
73 71 81 64 2 -2 10 2 18 10 8 8 23 15 34 15 10 0 19 4 19 8 0 4 10 9 23 10
62 6 113 15 121 23 5 4 13 6 17 3 4 -2 21 -6 38 -8z m-599 -976 c0 -3 15 -6
33 -7 58 -3 147 -52 147 -82 0 -6 5 -11 10 -11 7 0 7 -6 1 -18 -6 -12 -7 -22
0 -29 6 -6 2 -17 -11 -31 -12 -12 -16 -22 -10 -22 6 0 8 -5 5 -10 -4 -6 -9 -9
-13 -7 -10 4 -61 -51 -54 -57 3 -4 -2 -6 -11 -6 -9 0 -17 -3 -17 -8 0 -6 -89
-52 -110 -57 -3 -1 -17 -7 -33 -13 -33 -14 -75 -24 -99 -24 -10 1 -18 -2 -18
-6 0 -4 -45 -7 -100 -7 -55 0 -100 4 -100 8 0 5 -5 5 -10 2 -6 -4 -17 -1 -25
5 -8 7 -15 9 -15 5 0 -5 -9 0 -20 10 -11 10 -20 14 -20 10 0 -5 -13 6 -28 23
-23 25 -28 39 -24 69 2 21 4 43 4 50 1 7 7 14 15 17 7 3 13 13 13 22 0 10 3
14 7 11 3 -4 12 2 20 13 8 11 18 20 23 20 5 0 21 11 36 25 15 14 33 25 41 25
8 0 11 5 7 12 -4 6 -3 8 3 5 6 -4 23 0 39 7 16 8 38 16 49 18 11 2 22 6 25 10
3 4 23 9 45 12 22 2 40 5 40 6 0 1 15 3 32 4 18 1 35 4 37 7 6 6 86 5 86 -1z
m700 -421 c0 -6 5 -7 13 -2 19 12 40 13 53 2 8 -6 14 -6 18 0 13 20 256 -19
256 -41 0 -4 4 -7 9 -5 20 5 91 -49 103 -78 7 -16 12 -33 10 -37 -1 -5 3 -8 9
-8 8 0 8 -5 -1 -15 -10 -12 -10 -15 1 -16 10 0 11 -2 2 -6 -7 -2 -13 -11 -13
-19 0 -9 -4 -13 -8 -10 -4 2 -14 -9 -21 -25 -7 -16 -16 -27 -21 -24 -4 3 -11
-2 -14 -11 -3 -8 -10 -13 -15 -10 -5 4 -11 3 -13 -1 -4 -11 -88 -56 -88 -48 0
3 -9 1 -21 -5 -21 -12 -47 -19 -86 -25 -11 -2 -32 -6 -45 -11 -37 -12 -268
-12 -268 0 0 6 -5 4 -10 -4 -5 -8 -10 -10 -10 -4 0 6 -14 11 -31 12 -17 0 -36
5 -43 11 -7 6 -16 8 -19 4 -4 -3 -7 -1 -7 6 0 7 -4 10 -9 6 -22 -13 -148 85
-135 106 3 5 1 9 -5 9 -11 0 -9 19 3 39 7 10 5 12 -3 6 -8 -4 -7 4 3 24 9 17
21 31 26 31 5 0 12 9 15 20 4 11 11 18 16 15 5 -4 9 -1 9 6 0 7 3 10 6 7 3 -4
14 2 24 12 23 23 128 62 142 54 7 -4 8 -2 4 4 -5 8 1 12 16 13 13 1 32 3 43 5
11 2 32 5 47 7 15 1 30 6 34 10 11 10 24 9 24 -4z m-1735 -93 c62 -6 77 -9 93
-19 6 -5 17 -5 22 -2 6 3 10 1 10 -4 0 -6 7 -11 15 -11 8 0 15 -4 15 -10 0 -5
4 -10 10 -10 15 0 50 -33 50 -47 0 -7 4 -13 9 -13 15 0 6 -91 -10 -101 -8 -5
-10 -9 -6 -9 4 0 -5 -13 -20 -28 -15 -16 -31 -27 -35 -25 -5 2 -8 0 -8 -5 0
-6 -11 -13 -25 -16 -16 -4 -23 -11 -19 -18 4 -7 3 -8 -5 -4 -6 4 -17 3 -24 -2
-16 -12 -99 -32 -109 -26 -4 3 -8 1 -8 -5 0 -14 -220 -7 -247 8 -13 6 -23 9
-23 6 0 -9 -81 37 -102 58 -10 9 -15 17 -12 17 3 0 -4 9 -17 21 -13 11 -18 18
-11 14 14 -7 16 4 3 24 -7 10 -4 19 7 29 9 7 11 11 5 7 -7 -3 -13 -1 -13 4 0
6 5 11 11 11 6 0 8 7 5 16 -3 8 -2 12 3 9 5 -3 12 4 16 15 4 11 11 18 16 15 5
-4 9 -1 9 5 0 6 11 15 25 20 14 5 25 14 25 20 0 5 3 10 8 9 4 -1 16 2 27 5 11
4 24 6 29 6 5 -1 12 3 15 9 4 6 20 12 37 14 16 2 34 6 39 8 6 3 28 7 50 8 22
2 42 4 43 6 2 2 13 2 25 0 12 -2 45 -6 72 -9z m3083 -117 c17 -2 32 -7 32 -11
0 -4 3 -7 8 -6 12 4 72 -24 72 -34 0 -5 5 -6 10 -3 6 3 10 1 10 -5 0 -6 4 -9
8 -6 5 3 16 -6 26 -19 10 -14 22 -22 27 -19 5 3 9 1 9 -4 0 -6 14 -24 30 -42
17 -18 30 -36 30 -41 0 -5 7 -9 16 -9 8 0 12 -5 9 -10 -3 -6 0 -12 7 -15 8 -3
13 -19 13 -38 -1 -17 2 -40 7 -49 6 -12 5 -18 -3 -18 -7 0 -4 -9 7 -22 10 -12
14 -18 8 -15 -8 5 -11 -6 -10 -33 0 -22 6 -40 11 -40 7 0 7 -3 0 -8 -15 -11
-17 -32 -3 -32 9 0 8 -4 -2 -10 -11 -7 -11 -10 -2 -10 10 0 10 -5 2 -20 -8
-15 -8 -20 2 -20 9 0 9 -3 0 -12 -8 -8 -9 -15 -1 -25 9 -10 8 -13 -1 -13 -9 0
-10 -3 -1 -13 6 -8 8 -17 4 -21 -12 -12 -14 -48 -2 -40 8 5 8 1 0 -14 -14 -27
-14 -35 2 -26 8 6 8 3 -1 -9 -8 -9 -11 -21 -7 -27 3 -5 0 -10 -7 -10 -9 0 -9
-3 2 -10 11 -7 11 -10 2 -10 -10 0 -10 -5 -2 -20 8 -14 8 -20 0 -20 -6 0 -8
-6 -4 -12 5 -8 0 -7 -11 2 -10 8 -16 10 -12 4 4 -7 -38 -9 -136 -7 -335 9
-567 8 -568 -2 0 -5 -3 -4 -6 3 -2 6 -10 9 -16 5 -20 -12 -47 -14 -47 -2 0 5
-4 7 -10 4 -13 -8 -13 1 1 27 9 16 8 23 -2 29 -8 5 -9 9 -4 9 7 0 11 25 10 61
0 33 3 66 7 72 4 6 2 20 -4 30 -7 14 -7 18 1 12 8 -4 10 4 8 29 -2 20 0 36 6
36 5 0 4 6 -2 14 -7 9 -8 17 -2 20 5 3 8 17 6 31 -1 14 2 25 6 25 5 0 9 7 9
16 0 9 -5 12 -12 8 -7 -4 -4 2 6 14 13 15 15 22 6 22 -9 0 -9 4 -2 13 5 6 13
27 17 45 3 17 11 32 16 32 6 0 8 4 5 9 -7 10 16 61 27 61 5 0 6 4 2 10 -3 5 3
18 15 30 11 11 20 25 20 32 0 6 3 9 6 6 3 -3 19 7 35 23 16 16 34 29 40 29 6
0 7 5 4 10 -4 6 -3 9 2 8 14 -4 83 23 79 31 -3 4 3 7 12 8 34 4 74 12 78 16 3
2 19 3 37 1 18 -1 47 -4 65 -5z m-1909 -512 c12 -9 13 -9 7 1 -10 17 10 15 28
-4 9 -8 16 -12 16 -7 0 4 4 3 8 -2 4 -6 18 -16 32 -23 14 -7 44 -23 67 -36 23
-13 44 -21 47 -18 3 2 8 -3 12 -12 3 -9 10 -13 15 -10 5 3 25 0 44 -6 19 -6
48 -12 65 -12 17 -1 33 -5 36 -10 3 -4 14 -4 24 2 10 6 21 7 24 2 5 -9 47 -9
62 0 5 3 25 6 44 6 19 1 51 4 70 8 61 10 200 12 206 2 3 -4 9 -6 14 -3 5 3 29
-3 52 -14 24 -11 39 -20 34 -21 -5 0 -3 -7 4 -15 9 -11 9 -15 1 -15 -7 0 -10
-10 -7 -24 3 -16 -1 -27 -11 -30 -8 -4 -13 -13 -10 -20 10 -26 -16 -32 -120
-31 -67 1 -103 -2 -103 -9 0 -7 -3 -7 -8 1 -9 14 -74 12 -84 -2 -5 -6 -8 -5
-8 3 0 9 -5 10 -18 3 -13 -7 -23 -6 -30 1 -8 8 -12 8 -12 2 0 -14 -281 -15
-297 -2 -7 6 -13 8 -13 4 0 -3 -11 -1 -24 4 -15 5 -27 5 -35 -3 -8 -8 -11 -8
-11 0 0 6 -9 9 -22 5 -11 -3 -19 -1 -16 4 4 5 -57 9 -145 9 -84 0 -158 4 -164
9 -8 5 -13 5 -13 0 0 -7 -128 -10 -150 -4 -9 3 -644 2 -655 0 -5 -1 -12 -2
-15 -1 -13 5 -140 5 -140 1 0 -3 -16 -5 -35 -6 -18 0 -32 3 -29 8 3 4 -7 3
-21 -2 -34 -13 -38 -13 -29 2 5 7 3 8 -7 3 -7 -5 -68 -10 -134 -11 -66 -1
-169 -5 -230 -9 -126 -8 -141 -8 -175 -6 -23 2 -23 3 -5 10 11 5 23 7 28 4 4
-2 7 0 7 6 0 6 7 8 15 5 8 -4 15 -1 15 6 0 6 4 9 9 5 5 -3 15 0 23 7 12 12 28
17 66 20 6 1 12 5 12 10 0 4 11 8 24 8 14 0 32 7 40 16 12 12 16 12 16 2 0 -9
2 -10 8 -2 4 7 27 17 52 24 25 7 50 15 55 18 10 6 13 7 50 16 11 2 21 5 23 6
1 2 7 4 12 5 6 1 13 4 18 5 4 1 10 2 15 1 4 0 7 3 7 7 0 4 8 8 18 9 42 3 62 8
62 14 0 4 8 6 18 4 9 -1 24 1 32 5 8 5 29 10 47 13 17 3 36 8 42 11 20 13 181
14 182 2 0 -7 2 -7 6 1 3 10 10 9 27 -2 12 -8 34 -16 49 -17 15 -1 27 -6 27
-11 0 -5 9 -7 20 -4 10 3 21 0 22 -5 2 -6 19 -12 38 -15 19 -2 37 -8 41 -15 4
-6 14 -8 23 -5 9 4 16 3 16 -1 0 -18 163 -16 230 3 30 8 63 17 74 20 10 2 25
10 34 17 8 7 17 12 19 10 7 -6 82 22 77 29 -2 4 5 6 16 4 11 -2 25 2 32 8 12
11 28 16 66 19 6 1 12 6 12 11 0 6 3 8 6 5 3 -3 17 -3 32 1 42 12 85 11 101
-2z"/>
</g>
</svg>
